<svg width="30px" height="30px" viewBox="0 0 30 30" version="1.1" xmlns="http://www.w3.org/2000/svg" xmlns:xlink="http://www.w3.org/1999/xlink"><g id="Group-14" transform="translate(4.000000, 2.000000)" fill-rule="nonzero"><path d="M7.8575227,0 C12.1980627,0 15.7139023,3.57328997 15.7139023,7.97772437 C15.7139023,8.27682482 15.6976886,8.57209234 15.6661039,8.86266818 C19.7616087,9.13470721 23,12.5960355 23,16.8223546 C23,18.331033 22.5859706,19.7785221 21.8139884,21.0371506 L21.6431052,21.3039194 L21.6298424,21.3208782 L22.5662795,25 L18.8456069,23.8583462 L18.8116143,23.8783342 C17.8808802,24.3780423 16.8589559,24.6836337 15.7964273,24.7727535 L15.4408167,24.7944119 L15.1424773,24.800079 C10.8019373,24.800079 7.28609768,21.226789 7.28609768,16.8223546 C7.28609768,16.5246543 7.30218102,16.2289447 7.33407141,15.9361702 C6.24738041,15.8651256 5.20006757,15.5662368 4.24653154,15.0646059 L4.059,14.96 L4.153,15.013 L0.433720458,16.1553697 L1.36931696,12.4769069 L1.19669059,12.2107466 C0.532717114,11.1366834 0.128928066,9.91484468 0.0261311707,8.63217287 L0.00558892854,8.28091035 L0,7.97772437 C0,3.57348403 3.51679279,0 7.8575227,0 Z M15.4577841,10.0011017 L15.4229329,10.1361651 C15.4194993,10.1485992 15.4160369,10.161021 15.4125455,10.1734304 L15.3857191,10.2668848 L15.3857191,10.2668848 C15.3715811,10.3146247 15.3570583,10.3622917 15.3421096,10.4097657 C15.3289591,10.4520759 15.3152563,10.4944294 15.3012187,10.536617 C15.289542,10.5710003 15.2778337,10.6053483 15.2659016,10.639589 C15.2122029,10.7944343 15.1539519,10.9467562 15.091344,11.0965608 L14.9941888,11.3193803 L14.9675978,11.3759337 L14.9675978,11.3759337 L14.864648,11.590812 L14.864648,11.590812 L14.7254956,11.8562091 L14.722,11.861 L14.5461434,12.1664515 C14.4221699,12.3701942 14.2894784,12.5676825 14.1486271,12.7584145 C14.1196451,12.7962493 14.0910789,12.8342361 14.0621865,12.8719526 C14.0366266,12.9066352 14.0098447,12.9409921 13.9827938,12.9751139 L13.9320025,13.0373416 L13.9320025,13.0373416 C13.722645,13.2971746 13.4972848,13.5423621 13.2578366,13.7722371 L13.1431413,13.8800961 L13.1431413,13.8800961 C13.1175434,13.903798 13.0919274,13.927122 13.0661623,13.950275 L12.9641591,14.0405214 L12.9641591,14.0405214 C12.9324771,14.0678677 12.900772,14.0949524 12.8688572,14.1217834 L12.7462379,14.2232188 L12.7462379,14.2232188 L12.6781115,14.2771507 L12.6781115,14.2771507 C11.5028053,15.20639 10.0605157,15.8034866 8.48745003,15.9301842 L8.46132519,16.1493313 L8.4472842,16.3165787 L8.4472842,16.3165787 L8.437235,16.4845312 L8.42917634,16.8223546 C8.42917634,20.5953604 11.4361795,23.6514993 15.1424773,23.6514993 C16.2261345,23.6514993 17.2722887,23.3898496 18.212819,22.8971716 L18.4917412,22.742468 L18.7075726,22.6159426 L20.9556404,23.3050701 L20.3934846,21.0949349 L20.7003567,20.6544858 C21.450062,19.5327287 21.8569213,18.2091437 21.8569213,16.8223546 C21.8569213,13.2726414 19.1941593,10.357098 15.7920616,10.0247737 L15.5589774,10.006141 L15.4577841,10.0011017 Z M12.0686245,15.9732943 C12.5304283,15.9732943 12.904215,16.3531065 12.904215,16.8223546 C12.904215,17.2916028 12.5304283,17.671415 12.0686245,17.671415 C11.6068207,17.671415 11.2318909,17.2916028 11.2318909,16.8223546 C11.2318909,16.3531065 11.6068207,15.9732943 12.0686245,15.9732943 Z M15.1431631,15.9732943 C15.6049669,15.9732943 15.9787536,16.3531065 15.9787536,16.8223546 C15.9787536,17.2916028 15.6049669,17.671415 15.1431631,17.671415 C14.6813594,17.671415 14.3064296,17.2916028 14.3064296,16.8223546 C14.3064296,16.3531065 14.6813594,15.9732943 15.1431631,15.9732943 Z M18.2175875,15.9732943 C18.6793913,15.9732943 19.053178,16.3531065 19.053178,16.8223546 C19.053178,17.2916028 18.6793913,17.671415 18.2175875,17.671415 C17.7557837,17.671415 17.3808539,17.2916028 17.3808539,16.8223546 C17.3808539,16.3531065 17.7557837,15.9732943 18.2175875,15.9732943 Z M7.8575227,1.14857966 C4.15097885,1.14857966 1.14307866,4.20496766 1.14307866,7.97772437 C1.14307866,9.35027224 1.54182822,10.6602666 2.27468292,11.7722835 L2.44970468,12.0253268 L2.60816783,12.2438064 L2.04351892,14.460254 L4.29242736,13.7713124 L4.50825878,13.8978377 C5.42698307,14.4364152 6.45814336,14.7470265 7.53361875,14.7990502 L7.851,14.806 L7.98562384,14.8039923 C9.47015598,14.7764763 10.8486217,14.2547851 11.9567752,13.3858328 L12.039,13.319 L12.072,13.292 L12.0998839,13.2707071 L12.0998839,13.2707071 L12.1,13.269 L12.1889849,13.1954163 C12.7454819,12.7169045 13.2244194,12.1479184 13.6038325,11.5107234 C13.6832693,11.3773155 13.7583434,11.2409176 13.8288534,11.1017342 C13.9285481,10.9049413 14.0191184,10.7025795 14.0999943,10.4952266 C14.1484934,10.3722817 14.1931562,10.2470254 14.2342875,10.1200373 C14.2815083,9.97332627 14.32435,9.82443559 14.3622512,9.67353088 L14.4050326,9.4933239 L14.4050326,9.4933239 L14.4328709,9.36189703 C14.5233116,8.91493035 14.5708237,8.45199077 14.5708237,7.97772437 C14.5708237,4.20471857 11.5638205,1.14857966 7.8575227,1.14857966 Z M8.49135982,9.59455765 L8.49135982,11.1014942 L7.02821913,11.1014942 L7.02821913,9.59455765 L8.49135982,9.59455765 Z M7.87866966,4.11812983 C9.22293016,4.11812983 10.1099592,5.05537083 10.1099592,6.18557322 C10.1099592,7.58224609 8.55838995,7.7930564 8.40323302,8.64572518 L8.39076889,8.78595757 L8.39076889,8.85946667 L7.07394228,8.85946667 L7.07394228,8.67569392 C7.07394228,7.30658697 8.70168629,7.27902106 8.70168629,6.24070504 C8.70168629,5.76289591 8.33590112,5.4412936 7.82380188,5.4412936 C7.31170264,5.4412936 6.85536532,5.77747521 6.79679634,6.32283649 L6.79045877,6.44285506 L5.41876438,6.44285506 C5.49192142,5.1196913 6.47954138,4.11812983 7.87866966,4.11812983 Z" id="Combined-Shape"/></g></svg>