<svg class="logo-lg monogram" viewBox="0 0 40 41" xmlns="http://www.w3.org/2000/svg" aria-labelledby="title"><title>
                    Homepage
                </title><path d="M0 40.155h28.932c6.364 0 11.016-4.925 11.016-11.618 0-4.337-1.71-7.603-5.08-9.69 2.14-2.035 3.316-4.498 3.316-8.085C38.184 4.23 33.584 0 26.364 0H0v5.568h4.171v28.966H0v5.621zm7.038-5.588V5.589h2.69v28.978h-2.69zm8.279-17.18V5.589h10.301c4.43 0 6.672 1.885 6.672 5.872 0 3.986-2.188 5.926-6.672 5.926H15.317zm0 17.18V22.355h12.182c4.185 0 6.654 2.215 6.654 6.106 0 3.89-2.469 6.106-6.654 6.106H15.317z" fill="#FFF" fill-rule="nonzero"/></svg>