<svg xmlns="http://www.w3.org/2000/svg" width="30" height="30">
    <path d="M11.858 2c4.34 0 7.856 3.573 7.856 7.978 0 .299-.016.594-.048.885 4.096.272 7.334 3.733 7.334 7.96a8.033 8.033 0 0 1-1.186 4.214l-.17.267-.014.017.936 3.679-3.72-1.142-.034.02c-.931.5-1.953.806-3.016.895l-.355.021-.299.006c-4.34 0-7.856-3.573-7.856-7.978 0-.297.016-.593.048-.886a7.699 7.699 0 0 1-3.087-.871l-.188-.105.094.053-3.72 1.142.936-3.678-.172-.266a8.011 8.011 0 0 1-1.17-3.579l-.021-.351L4 9.978C4 5.573 7.517 2 11.858 2Zm7.6 10.001-.035.135a8.006 8.006 0 0 1-.01.037l-.027.094a8.72 8.72 0 0 1-.295.83l-.097.222-.026.057-.103.215-.14.265-.003.005-.176.305a7.974 7.974 0 0 1-.397.592l-.087.114a3.708 3.708 0 0 1-.08.103l-.05.062c-.21.26-.435.505-.674.735l-.115.108a6.979 6.979 0 0 1-.077.07l-.102.09a9.627 9.627 0 0 1-.095.082l-.123.101-.068.054a7.746 7.746 0 0 1-4.19 1.653l-.027.22-.014.167-.01.168-.008.337c0 3.773 3.007 6.83 6.713 6.83 1.084 0 2.13-.262 3.07-.755l.28-.155.216-.126 2.248.69-.563-2.211.307-.44a6.873 6.873 0 0 0 1.157-3.833c0-3.55-2.663-6.465-6.065-6.797l-.233-.019-.101-.005Zm-3.39 5.972c.462 0 .836.38.836.85 0 .469-.374.848-.835.848a.843.843 0 0 1-.837-.849c0-.469.375-.849.837-.849Zm3.075 0c.462 0 .836.38.836.85 0 .469-.374.848-.836.848a.843.843 0 0 1-.837-.849c0-.469.375-.849.837-.849Zm3.075 0c.461 0 .835.38.835.85 0 .469-.374.848-.835.848a.843.843 0 0 1-.837-.849c0-.469.375-.849.837-.849ZM11.858 3.15c-3.707 0-6.715 3.056-6.715 6.829 0 1.372.399 2.682 1.132 3.794l.175.253.158.219-.564 2.216 2.248-.689.216.127c.919.538 1.95.849 3.026.901l.317.007.135-.002a6.62 6.62 0 0 0 3.97-1.418l.083-.067.033-.027.028-.021v-.002l.089-.074a6.833 6.833 0 0 0 2.173-3.521l.043-.18.028-.132c.09-.447.138-.91.138-1.384 0-3.773-3.007-6.83-6.713-6.83Zm.633 8.446V13.1h-1.463v-1.506h1.463Zm-.612-5.477c1.344 0 2.231.937 2.231 2.068 0 1.396-1.552 1.607-1.707 2.46l-.012.14v.073h-1.317v-.183c0-1.37 1.628-1.397 1.628-2.435 0-.478-.366-.8-.878-.8s-.969.336-1.027.882l-.007.12H9.42c.073-1.323 1.06-2.325 2.46-2.325Z"/>
</svg>